<?xml version="1.0" standalone="no"?>
<!DOCTYPE svg PUBLIC "-//W3C//DTD SVG 20010904//EN"
 "http://www.w3.org/TR/2001/REC-SVG-20010904/DTD/svg10.dtd">
<svg version="1.0" xmlns="http://www.w3.org/2000/svg"
 width="1440.000000pt" height="1440.000000pt" viewBox="0 0 1440.000000 1440.000000"
 preserveAspectRatio="xMidYMid meet">
<metadata>
Created by potrace 1.14, written by Peter Selinger 2001-2017
</metadata>
<g transform="translate(0.000000,1440.000000) scale(0.100000,-0.100000)"
fill="#000000" stroke="none">
<path d="M2619 10315 c-3 -2 -25 -6 -51 -9 -206 -25 -446 -115 -633 -236 -44
-29 -82 -55 -85 -59 -3 -3 -23 -19 -45 -36 -61 -45 -175 -159 -175 -175 0 -7
2 -11 5 -8 3 2 40 -29 84 -71 114 -111 271 -255 286 -263 8 -5 32 10 64 42
146 142 370 254 552 276 108 13 275 8 357 -11 12 -3 32 -7 43 -10 132 -29 328
-139 452 -255 27 -25 53 -45 58 -45 8 0 130 112 313 288 l71 67 -81 78 c-45
42 -117 102 -160 134 -83 59 -254 161 -254 151 0 -3 -6 -1 -12 4 -34 27 -259
100 -363 118 -16 2 -41 8 -55 11 -29 7 -365 15 -371 9z"/>
<path d="M7509 10316 c-2 -2 -31 -7 -64 -10 -50 -4 -133 -21 -205 -40 -51 -13
-177 -59 -211 -76 -21 -11 -39 -18 -39 -15 0 3 -18 -6 -40 -20 -22 -14 -43
-25 -46 -25 -9 0 -175 -110 -192 -127 -7 -7 -17 -13 -21 -13 -4 0 -50 -41
-102 -90 l-94 -90 66 -63 c205 -194 310 -292 317 -294 4 -2 32 20 62 49 77 71
182 144 270 185 68 32 164 69 183 71 4 0 20 3 35 6 15 3 41 8 57 12 52 10 228
13 275 4 25 -4 61 -11 80 -14 64 -10 194 -57 270 -98 41 -22 77 -43 80 -47 3
-4 19 -15 35 -25 32 -20 33 -21 113 -93 30 -26 57 -48 62 -48 8 0 89 75 319
293 l66 62 -74 71 c-41 39 -99 89 -130 112 -31 23 -58 44 -61 47 -19 20 -127
82 -227 131 -86 41 -273 106 -327 114 -17 2 -33 5 -36 6 -3 1 -9 3 -15 4 -5 2
-12 4 -15 5 -24 9 -383 24 -391 16z"/>
<path d="M11582 9830 c-10 -6 -10 -2856 0 -2865 5 -6 407 -10 489 -6 15 1 17
115 17 1439 l-1 1437 -249 0 c-137 1 -252 -2 -256 -5z"/>
<path d="M0 8335 l0 -1380 793 1 c435 1 798 2 805 3 9 1 12 60 12 261 l0 261
-102 0 c-57 0 -110 0 -118 0 -8 0 -37 0 -65 0 -27 0 -58 0 -67 0 -10 0 -90 0
-178 0 -88 0 -166 0 -172 0 -7 0 -35 0 -63 0 -27 0 -57 0 -65 0 -8 0 -55 0
-105 -1 -49 -1 -98 -1 -107 -1 -17 1 -18 61 -18 1119 l0 1117 -275 0 -275 0 0
-1380z"/>
<path d="M9090 9693 c-1 -25 -1 -2682 0 -2713 l0 -25 253 0 252 0 0 95 c1 52
4 97 9 99 4 2 35 -19 69 -46 34 -27 82 -63 107 -80 53 -36 180 -93 208 -93 10
0 22 -3 26 -7 4 -5 11 -8 14 -8 4 -1 30 -5 57 -10 68 -11 207 -13 269 -4 28 5
66 11 84 14 19 3 41 9 50 14 9 5 21 9 25 9 8 0 43 12 112 40 129 51 309 205
399 340 70 106 133 243 150 328 3 10 9 39 15 64 19 86 22 116 23 215 0 127 -7
187 -38 304 -41 156 -131 324 -235 439 -31 33 -146 133 -184 160 -61 42 -235
116 -304 129 -14 2 -28 6 -32 8 -10 7 -158 19 -209 17 -206 -6 -359 -64 -530
-201 -41 -33 -77 -58 -79 -55 -3 2 -5 224 -5 492 l-1 487 -252 3 c-236 2 -253
1 -253 -15z m1150 -1207 c300 -41 502 -325 454 -636 -38 -244 -200 -410 -444
-457 -37 -7 -170 -7 -213 0 -200 35 -366 184 -416 376 -94 354 113 685 449
718 30 3 56 6 57 7 3 3 67 -2 113 -8z"/>
<path d="M5027 8979 c-27 -4 -69 -10 -94 -14 -88 -12 -250 -71 -328 -119 -136
-85 -203 -146 -292 -264 -72 -95 -154 -281 -168 -379 -4 -21 -8 -45 -12 -53
-11 -30 -13 -261 -2 -336 14 -105 52 -222 102 -319 23 -44 44 -82 47 -85 3 -3
18 -23 34 -45 52 -71 174 -195 193 -195 6 0 13 -4 15 -8 6 -14 91 -67 158 -99
161 -74 265 -97 450 -96 174 1 312 41 440 129 58 39 150 128 150 144 0 6 6 10
14 10 10 0 13 -29 11 -147 -1 -82 -5 -161 -9 -178 -14 -58 -40 -125 -48 -125
-4 0 -8 -7 -8 -16 0 -28 -100 -121 -169 -157 -74 -39 -120 -54 -201 -62 -30
-4 -61 -8 -67 -10 -7 -3 -13 -1 -13 3 0 4 -17 6 -37 6 -154 -5 -363 106 -471
249 l-21 28 -38 -24 c-21 -13 -45 -27 -53 -30 -8 -4 -31 -17 -50 -29 -19 -11
-60 -34 -90 -51 -120 -66 -142 -78 -168 -94 -15 -9 -29 -18 -30 -19 -2 -1 15
-31 39 -66 86 -128 194 -221 333 -287 126 -61 214 -88 376 -117 44 -8 282 -13
294 -6 5 3 25 6 45 7 31 2 70 9 171 31 14 3 35 7 48 10 71 14 216 81 298 136
61 40 181 158 221 218 48 71 100 182 118 250 37 139 38 161 35 730 -1 300 -3
743 -4 985 l-1 440 -240 1 c-132 0 -245 -1 -250 -3 -7 -2 -10 -44 -10 -109 1
-58 -2 -107 -5 -109 -3 -2 -35 25 -70 59 -36 34 -78 71 -95 83 -45 30 -144 84
-163 88 -9 2 -36 10 -60 19 -24 9 -46 15 -50 15 -4 -1 -9 -1 -12 1 -33 12
-203 18 -263 9z m308 -487 c49 -10 160 -63 199 -94 158 -123 235 -322 202
-523 -36 -225 -211 -396 -441 -433 -51 -8 -192 -7 -227 1 -16 4 -39 9 -52 12
-41 9 -115 43 -159 74 -116 83 -180 177 -215 318 -9 34 -9 207 0 248 19 94 74
192 149 265 67 66 184 124 274 137 22 3 42 7 44 9 7 6 185 -4 226 -14z"/>
<path d="M2678 8975 c-2 -2 -21 -5 -43 -9 -71 -10 -99 -17 -173 -42 -86 -29
-204 -85 -249 -120 -17 -13 -34 -24 -37 -24 -35 0 -286 -279 -286 -317 0 -6
-8 -21 -18 -34 -34 -44 -101 -241 -112 -329 -6 -47 -3 -311 4 -345 13 -68 35
-148 53 -195 50 -132 160 -293 262 -384 19 -17 42 -38 51 -46 9 -8 24 -19 32
-25 8 -5 33 -22 55 -36 106 -71 270 -138 381 -154 17 -3 49 -8 70 -11 66 -9
170 -11 234 -3 120 16 134 18 203 40 39 13 75 23 81 25 35 7 199 99 261 146
36 28 181 175 204 208 86 119 148 260 185 425 12 51 13 317 2 375 -33 170 -98
321 -194 446 -64 85 -210 224 -234 224 -5 0 -10 5 -10 10 0 6 -5 10 -10 10 -6
0 -28 11 -49 25 -31 21 -206 101 -206 95 0 -1 -20 3 -45 10 -105 28 -132 32
-277 35 -73 1 -134 1 -135 0z m232 -499 c45 -7 52 -9 122 -40 21 -9 40 -16 43
-16 3 0 12 -5 19 -12 8 -7 34 -29 59 -48 92 -71 170 -221 183 -353 5 -40 8
-74 7 -77 0 -3 -4 -33 -7 -67 -12 -114 -60 -216 -144 -303 -31 -33 -63 -60
-69 -60 -7 0 -13 -3 -13 -8 0 -18 -138 -75 -216 -88 -49 -8 -150 -8 -189 1
-16 3 -43 8 -60 11 -51 9 -165 73 -216 121 -75 71 -134 177 -155 278 -13 62
-15 171 -4 232 53 295 328 480 640 429z"/>
<path d="M7527 8973 c-3 -2 -22 -6 -43 -8 -22 -2 -39 -4 -39 -5 0 -1 -11 -4
-25 -6 -100 -18 -245 -81 -354 -152 -72 -48 -226 -190 -226 -210 0 -7 -4 -12
-9 -12 -13 0 -94 -132 -132 -215 -106 -234 -115 -564 -22 -795 4 -8 7 -18 8
-22 2 -5 4 -10 5 -13 1 -3 3 -8 4 -12 5 -20 63 -124 99 -178 34 -50 124 -154
162 -186 14 -12 97 -77 111 -87 110 -77 315 -152 469 -170 289 -33 621 66 815
244 14 13 34 31 45 41 11 10 33 33 48 51 15 19 27 30 27 26 0 -15 104 145 123
189 6 15 15 27 19 27 4 0 8 6 8 14 0 7 9 34 20 59 26 58 57 177 66 254 14 117
4 305 -21 383 -3 10 -7 27 -9 37 -9 44 -69 185 -107 249 -57 94 -138 190 -226
264 -29 25 -38 31 -98 70 -16 10 -34 23 -40 27 -36 30 -228 103 -310 117 -16
3 -41 9 -55 12 -28 7 -307 14 -313 7z m310 -518 c138 -47 249 -143 308 -267
77 -162 78 -336 4 -493 -148 -313 -583 -397 -853 -165 -42 37 -123 155 -130
190 -1 3 -5 10 -9 16 -26 41 -40 231 -24 316 7 36 27 99 38 118 4 8 17 34 29
57 12 23 48 68 80 101 81 81 166 123 300 149 13 2 26 5 27 6 7 8 190 -14 230
-28z"/>
<path d="M12393 8930 l-51 -5 24 -60 c14 -33 33 -78 43 -100 22 -47 35 -76 91
-210 40 -95 66 -154 95 -220 7 -16 25 -59 40 -95 15 -36 35 -83 45 -105 15
-35 44 -101 85 -200 7 -16 22 -50 33 -75 11 -25 39 -90 62 -145 23 -55 48
-113 55 -130 84 -187 235 -550 235 -564 0 -9 -11 -41 -25 -69 -14 -29 -25 -56
-25 -62 0 -5 -4 -10 -10 -10 -5 0 -10 -7 -10 -15 0 -22 -119 -139 -167 -163
-54 -28 -158 -51 -248 -56 -11 -1 -22 -4 -25 -8 -3 -4 -5 -109 -5 -235 l0
-228 92 0 c328 -2 591 141 777 420 80 119 107 179 232 514 63 168 117 313 121
321 8 19 8 19 18 55 4 17 13 39 19 50 5 11 11 22 12 25 0 3 3 12 6 20 3 8 27
74 53 145 42 117 60 167 85 230 5 11 49 133 99 270 50 138 109 300 131 360 56
152 120 331 120 338 0 12 -517 4 -532 -7 -12 -9 -52 -112 -73 -186 -2 -8 -22
-71 -45 -140 -23 -69 -43 -129 -44 -135 -2 -5 -6 -17 -9 -25 -8 -19 -137 -401
-141 -415 -4 -18 -47 -150 -56 -170 -10 -24 -61 -176 -63 -190 -9 -40 -21 -34
-44 21 -13 33 -28 68 -32 79 -13 28 -55 139 -57 145 0 3 -5 16 -11 30 -6 14
-19 45 -28 70 -9 25 -21 54 -26 65 -5 11 -33 83 -63 160 -30 77 -83 214 -119
305 -35 91 -83 213 -106 272 -23 58 -48 111 -54 117 -14 11 -412 20 -504 11z"/>
<path d="M2950 6268 c-14 -5 -88 -33 -165 -60 -77 -28 -169 -61 -205 -74 -36
-13 -65 -27 -64 -31 2 -30 18 -83 25 -83 5 0 9 -8 9 -18 0 -22 138 -305 151
-310 5 -2 9 -8 9 -13 0 -29 222 -349 301 -434 15 -16 38 -41 49 -55 74 -87
221 -225 346 -326 81 -66 326 -228 404 -269 179 -94 421 -200 445 -196 3 1 19
-6 35 -14 17 -9 30 -13 30 -9 0 4 6 2 13 -4 6 -6 17 -11 22 -11 6 -1 28 -7 50
-13 22 -6 45 -12 52 -14 7 -1 43 -10 80 -19 37 -10 79 -19 93 -21 14 -3 48 -9
75 -14 47 -9 65 -11 170 -25 181 -24 511 -23 671 1 23 3 57 7 75 9 19 1 45 5
59 8 14 4 41 9 61 11 20 3 42 8 50 10 8 3 25 7 39 10 168 30 586 175 641 222
8 8 21 14 28 14 13 0 143 72 229 126 29 19 57 34 62 34 6 0 10 5 10 10 0 6 7
10 15 10 8 0 15 4 15 8 0 4 14 16 32 26 17 11 39 25 47 32 9 7 39 30 67 51
116 85 366 322 442 419 202 253 336 472 451 735 41 94 43 90 -61 128 -129 47
-249 92 -273 101 -53 21 -106 40 -113 40 -5 0 -19 -26 -32 -57 -27 -68 -114
-243 -145 -293 -12 -19 -22 -39 -23 -44 0 -5 -4 -12 -9 -15 -4 -3 -26 -33 -48
-66 -21 -33 -52 -76 -67 -95 -16 -19 -32 -40 -36 -45 -59 -85 -246 -273 -367
-369 -195 -154 -321 -230 -580 -347 -26 -12 -186 -69 -205 -74 -8 -1 -35 -9
-60 -16 -25 -7 -49 -14 -55 -15 -5 0 -17 -4 -25 -7 -8 -3 -28 -8 -45 -11 -16
-2 -53 -9 -81 -15 -28 -5 -72 -12 -97 -15 -26 -3 -68 -9 -94 -12 -26 -3 -50
-7 -55 -10 -4 -3 -8 -1 -8 5 0 6 -11 7 -27 2 -30 -8 -291 -6 -383 4 -97 9
-134 14 -162 20 -16 3 -38 7 -50 9 -75 14 -175 38 -190 46 -10 6 -26 10 -35
10 -25 0 -201 64 -297 107 -125 56 -317 163 -371 205 -5 5 -42 32 -81 61 -169
124 -305 256 -467 456 -30 38 -133 194 -158 241 -13 25 -27 47 -30 50 -11 10
-134 276 -137 295 -1 14 -23 16 -52 3z"/>
</g>
</svg>
